<mxfile host="app.diagrams.net" modified="2023-10-31T13:15:18.609Z" agent="Mozilla/5.0 (Windows NT 10.0; Win64; x64) AppleWebKit/537.36 (KHTML, like Gecko) Chrome/118.0.0.0 Safari/537.36" etag="_5zTayPjm1vXqYA7aO_M" version="22.0.8" type="github">
  <diagram id="prtHgNgQTEPvFCAcTncT" name="Page-1">
    <mxGraphModel dx="1221" dy="683" grid="0" gridSize="10" guides="1" tooltips="1" connect="1" arrows="1" fold="1" page="1" pageScale="1" pageWidth="827" pageHeight="1169" math="0" shadow="0">
      <root>
        <mxCell id="0" />
        <mxCell id="1" parent="0" />
        <mxCell id="Su-gX5-2fGencPW4O49B-3" value="" style="edgeStyle=orthogonalEdgeStyle;rounded=0;orthogonalLoop=1;jettySize=auto;html=1;" edge="1" parent="1" source="Su-gX5-2fGencPW4O49B-1" target="Su-gX5-2fGencPW4O49B-2">
          <mxGeometry relative="1" as="geometry" />
        </mxCell>
        <mxCell id="Su-gX5-2fGencPW4O49B-1" value="数据S" style="rounded=0;whiteSpace=wrap;html=1;" vertex="1" parent="1">
          <mxGeometry x="200" y="230" width="120" height="60" as="geometry" />
        </mxCell>
        <mxCell id="Su-gX5-2fGencPW4O49B-5" value="" style="edgeStyle=orthogonalEdgeStyle;rounded=0;orthogonalLoop=1;jettySize=auto;html=1;" edge="1" parent="1" source="Su-gX5-2fGencPW4O49B-2" target="Su-gX5-2fGencPW4O49B-4">
          <mxGeometry relative="1" as="geometry" />
        </mxCell>
        <mxCell id="Su-gX5-2fGencPW4O49B-2" value="变异策略" style="rounded=0;whiteSpace=wrap;html=1;" vertex="1" parent="1">
          <mxGeometry x="400" y="230" width="120" height="60" as="geometry" />
        </mxCell>
        <mxCell id="Su-gX5-2fGencPW4O49B-7" value="" style="edgeStyle=orthogonalEdgeStyle;rounded=0;orthogonalLoop=1;jettySize=auto;html=1;" edge="1" parent="1" source="Su-gX5-2fGencPW4O49B-4" target="Su-gX5-2fGencPW4O49B-6">
          <mxGeometry relative="1" as="geometry" />
        </mxCell>
        <mxCell id="Su-gX5-2fGencPW4O49B-4" value="新数据I" style="rounded=0;whiteSpace=wrap;html=1;" vertex="1" parent="1">
          <mxGeometry x="600" y="230" width="120" height="60" as="geometry" />
        </mxCell>
        <mxCell id="Su-gX5-2fGencPW4O49B-6" value="测试对象" style="rounded=0;whiteSpace=wrap;html=1;" vertex="1" parent="1">
          <mxGeometry x="800" y="230" width="120" height="60" as="geometry" />
        </mxCell>
        <mxCell id="Su-gX5-2fGencPW4O49B-8" value="" style="endArrow=classic;html=1;rounded=0;exitX=0.5;exitY=1;exitDx=0;exitDy=0;entryX=0.5;entryY=1;entryDx=0;entryDy=0;" edge="1" parent="1" source="Su-gX5-2fGencPW4O49B-6" target="Su-gX5-2fGencPW4O49B-1">
          <mxGeometry width="50" height="50" relative="1" as="geometry">
            <mxPoint x="760" y="440" as="sourcePoint" />
            <mxPoint x="810" y="390" as="targetPoint" />
            <Array as="points">
              <mxPoint x="860" y="360" />
              <mxPoint x="560" y="360" />
              <mxPoint x="260" y="360" />
            </Array>
          </mxGeometry>
        </mxCell>
      </root>
    </mxGraphModel>
  </diagram>
</mxfile>
